<svg xmlns:xlink="http://www.w3.org/1999/xlink" xmlns="http://www.w3.org/2000/svg" viewBox="0 0 1100 354.324" class="css-116ckqy" width="1100" height="354.324" id="svgcontent" x="550" y="259.83799999999997"><defs></defs><g style="pointer-events:all"><title style="pointer-events:inherit">Layer 1</title><path xmlns="http://www.w3.org/2000/svg" fill="#7D91C4" d="M145.602,351.463L10.648,273.527A21.358,21.358 0 0 1 0,255.067L0,99.257A21.358,21.358 0 0 1 10.648,80.734L145.602,2.861A21.358,21.358 0 0 1 166.961,2.861L301.852,80.797A21.358,21.358 0 0 1 312.5,99.321L312.5,255.067A21.358,21.358 0 0 1 301.852,273.59L166.961,351.463A21.358,21.358 0 0 1 145.602,351.463z" style="pointer-events:inherit" id="svg_1"></path><path fill="#FFFFFF" d="M56.477,217.668L56,214.613C60.105,214.136 65.165,212.895 66.215,203.158C66.979,196.666 67.074,175.95 67.074,168.313C67.074,157.811 66.788,147.31 66.31,137.859C67.933,138.146 69.747,138.432 71.943,138.432C74.233,138.432 75.857,138.146 77.575,137.859C76.811,148.838 76.525,162.489 76.525,177.095C76.525,181.2 76.621,185.974 76.621,190.079C76.621,200.962 76.43,206.308 71.179,211.654C66.31,216.618 60.582,217.286 56.477,217.668zM129.413,137C149.365,137 165.308,148.742 165.308,170.222C165.308,190.174 151.179,205.353 128.458,205.353C107.647,205.353 92.563,192.561 92.563,171.368C92.563,151.033 106.023,137 129.413,137zM103.446,171.272C103.446,189.888 113.947,201.248 128.649,201.248C143.733,201.248 154.425,190.27 154.425,170.699C154.425,165.735 153.565,158.002 150.225,152.369C145.069,143.683 135.427,141.105 128.935,141.105C116.239,141.105 103.446,149.697 103.446,171.272zM244.736,203.922C244.64,193.706 240.821,157.525 240.535,154.947A939.968,939.968 0 0 0 220.773,192.561C217.813,198.575 216.955,200.961 215.809,203.921C215.332,203.826 214.854,203.731 214.473,203.731S213.709,203.826 213.231,203.921C211.513,200.007 210.463,197.621 208.745,194.279C202.062,181.391 194.425,166.785 188.125,155.807C185.833,170.127 184.115,195.329 184.21,203.921C182.683,203.539 181.823,203.348 180.582,203.348C178.673,203.348 176.955,203.73 176,203.921C176.955,199.434 183.637,158.384 185.833,137.477C186.31,137.573 186.883,137.668 187.456,137.668C187.933,137.668 188.696,137.573 189.366,137.478C192.134,143.778 210.845,179.1 216.955,188.933C232.325,160.389 234.043,157.239 239.675,146.547C241.967,142.06 242.444,141.105 244.067,137.477C244.735,137.573 245.212,137.668 245.785,137.668C246.263,137.668 246.835,137.573 247.599,137.478C249.795,157.621 252.945,185.974 255.427,201.344C255.523,202.012 255.618,202.68 256,203.921C253.422,203.539 252.372,203.348 250.654,203.348C247.885,203.348 246.358,203.635 244.735,203.921L244.736,203.922z" style="pointer-events:inherit" id="svg_2"></path><text fill="#FBFBF8" stroke-width="0px" x="390.0495868829681" y="191.31750498676462" id="svg_3" font-size="250" font-family="'Rounded Mplus 1c ExtraBold'" text-anchor="start" xml:space="preserve" font-weight="normal" font-style="normal" stroke="#000000" transform="matrix(1.33702 0 0 1.44494 -137.503 32.168)">JOM</text></g></svg>