<svg xmlns:xlink="http://www.w3.org/1999/xlink" viewBox="0 0 312.5 354.324" class="css-116ckqy" xmlns="http://www.w3.org/2000/svg" width="80"  height="90.70694400000001" ><defs></defs><path xmlns="http://www.w3.org/2000/svg" fill="#7D91C4" d="M145.602 351.463L10.648 273.527A21.358 21.358 0 010 255.067V99.257a21.358 21.358 0 0110.648-18.523L145.602 2.861a21.358 21.358 0 0121.359 0l134.891 77.936A21.358 21.358 0 01312.5 99.321v155.746a21.358 21.358 0 01-10.648 18.523l-134.891 77.873a21.358 21.358 0 01-21.359 0z"></path><path fill="#FFFFFF" d="M56.477 217.668L56 214.613c4.105-.477 9.165-1.718 10.215-11.455.764-6.492.859-27.208.859-34.845 0-10.502-.286-21.003-.764-30.454 1.623.287 3.437.573 5.633.573 2.29 0 3.914-.286 5.632-.573-.764 10.979-1.05 24.63-1.05 39.236 0 4.105.096 8.879.096 12.984 0 10.883-.191 16.229-5.442 21.575-4.869 4.964-10.597 5.632-14.702 6.014zM129.413 137c19.952 0 35.895 11.742 35.895 33.222 0 19.952-14.129 35.131-36.85 35.131-20.811 0-35.895-12.792-35.895-33.985 0-20.335 13.46-34.368 36.85-34.368zm-25.967 34.272c0 18.616 10.501 29.976 25.203 29.976 15.084 0 25.776-10.978 25.776-30.549 0-4.964-.86-12.697-4.2-18.33-5.156-8.686-14.798-11.264-21.29-11.264-12.696 0-25.489 8.592-25.489 30.167zm141.29 32.65c-.096-10.216-3.915-46.397-4.201-48.975a939.968 939.968 0 00-19.762 37.614c-2.96 6.014-3.818 8.4-4.964 11.36-.477-.095-.955-.19-1.336-.19s-.764.095-1.242.19c-1.718-3.914-2.768-6.3-4.486-9.642-6.683-12.888-14.32-27.494-20.62-38.472-2.292 14.32-4.01 39.522-3.915 48.114-1.527-.382-2.387-.573-3.628-.573-1.909 0-3.627.382-4.582.573.955-4.487 7.637-45.537 9.833-66.444.477.096 1.05.191 1.623.191.477 0 1.24-.095 1.91-.19 2.768 6.3 21.479 41.622 27.589 51.455 15.37-28.544 17.088-31.694 22.72-42.386 2.292-4.487 2.769-5.442 4.392-9.07.668.096 1.145.191 1.718.191.478 0 1.05-.095 1.814-.19 2.196 20.143 5.346 48.496 7.828 63.866.096.668.191 1.336.573 2.577-2.578-.382-3.628-.573-5.346-.573-2.769 0-4.296.287-5.919.573z"></path></svg>